<?xml version="1.0" encoding="utf-8"?>
<!-- Generator: Adobe Illustrator 18.1.0, SVG Export Plug-In . SVG Version: 6.00 Build 0)  -->
<!DOCTYPE svg PUBLIC "-//W3C//DTD SVG 1.1//EN" "http://www.w3.org/Graphics/SVG/1.1/DTD/svg11.dtd">
<svg version="1.1" id="Layer_1" xmlns="http://www.w3.org/2000/svg" xmlns:xlink="http://www.w3.org/1999/xlink" x="0px" y="0px"
	 viewBox="0 0 119.6 119.6" enable-background="new 0 0 119.6 119.6" xml:space="preserve">
<g>
	<path fill="#205081" d="M105.2,119.6H14.4c-7.9,0-14.4-6.5-14.4-14.4V14.4C0,6.5,6.5,0,14.4,0h90.8c7.9,0,14.4,6.5,14.4,14.4v90.8
		C119.6,113.1,113.1,119.6,105.2,119.6z"/>
	<g id="g4088" transform="translate(-2.627806,4.004985)">
		<path id="path3962" fill="#FFFFFF" d="M28.8,33.3c0,0-0.6,13.6,19.5,33.3c20.1,19.8,22.4,27.8,21.3,33.3h14.6
			c0,0,1.3-22.9-21.3-39c0,0-15.6-13.9-18.2-24.9c0,0-7.7,0-13-4.3C31.7,31.7,28.8,30,28.8,33.3"/>
		<path id="path3966" fill="#FFFFFF" d="M60,64.6c4,2.9,7.3,6,10,9.1c1.9-2.1,4.1-4.3,6.6-6.7C96.6,47.3,96,33.3,96,33.3
			c0-3.3-2.9-1.5-2.9-1.5c-5.3,4.3-13,4.4-13,4.4c-2.5,11-18.2,25.1-18.2,25.1c-1.1,0.8-2,1.5-3,2.3C59.6,64.3,60,64.6,60,64.6"/>
		<path id="path3970" fill="#FFFFFF" d="M59.8,86.1c-2.6-3.4-6.1-7.3-10.6-12c-9.3,13.4-8.6,26.7-8.6,26.7h14.6
			C54.5,97.4,55.1,93.1,59.8,86.1"/>
		<path id="path3974" fill="#FFFFFF" d="M55,37.2h14.5c0,0,1.9-0.3,1.4,2.2c-0.7,3.6-8.5,10.8-8.5,10.8S56.8,45,54.2,40
			C54.2,40,53.2,37.2,55,37.2"/>
		<path id="path3978" fill="#FFFFFF" d="M87.8,22.2c0,3.5-2.8,6.3-6.3,6.3c-3.5,0-6.3-2.8-6.3-6.3c0-3.5,2.8-6.3,6.3-6.3
			C85,15.9,87.8,18.7,87.8,22.2"/>
		<path id="path3982" fill="#FFFFFF" d="M50.5,22.2c0,3.5-2.8,6.3-6.3,6.3c-3.5,0-6.3-2.8-6.3-6.3c0-3.5,2.8-6.3,6.3-6.3
			C47.7,15.9,50.5,18.7,50.5,22.2"/>
		<path id="path3986" fill="#FFFFFF" d="M69.6,17.1c0,3.5-2.8,6.3-6.3,6.3c-3.5,0-6.3-2.8-6.3-6.3c0-3.5,2.8-6.3,6.3-6.3
			S69.6,13.6,69.6,17.1"/>
	</g>
</g>
</svg>
