<?xml version="1.0" encoding="utf-8"?>
<!-- Generator: Adobe Illustrator 18.1.0, SVG Export Plug-In . SVG Version: 6.00 Build 0)  -->
<!DOCTYPE svg PUBLIC "-//W3C//DTD SVG 1.1//EN" "http://www.w3.org/Graphics/SVG/1.1/DTD/svg11.dtd">
<svg version="1.1" id="Layer_1" xmlns="http://www.w3.org/2000/svg" xmlns:xlink="http://www.w3.org/1999/xlink" x="0px" y="0px"
	 viewBox="0 0 264 278.2" enable-background="new 0 0 264 278.2" xml:space="preserve" >
<g>
	<g>
		<path fill="#BDB9B9" d="M186.4,121.2h-2.7c-13,13-31.3,22.1-51.6,22.1s-38.6-9.1-51.6-22.1h-3.6C35.1,121.2,0,154.8,0,196.5v22.7
			c0,31.3,26.7,59,57.9,59h147.3c31.3,0,58.7-27.7,58.7-59v-22.7C264,154.8,228.1,121.2,186.4,121.2z"/>
	</g>
	<circle fill="#BDB9B9" cx="133" cy="62.4" r="62.4"/>
	<path fill="#FFFFFF" d="M107.1,219.8L81.3,246c-7.1,7.2-19.2,4-21.9-5.7l-9.8-35.4c-2.7-9.7,6.1-18.7,15.9-16.2l35.6,9.2
		C110.8,200.5,114.2,212.6,107.1,219.8z"/>
	<path fill="#FFFFFF" d="M220.6,187.3l-14.2,14.4c-3.9,4-10.6,2.2-12.1-3.1l-5.4-19.5c-1.5-5.3,3.4-10.3,8.8-8.9l19.6,5.1
		C222.6,176.7,224.4,183.4,220.6,187.3z"/>
	<path fill="#FFFFFF" d="M242.9,217.4l-14.2,14.4c-3.9,4-10.6,2.2-12.1-3.1l-5.4-19.5c-1.5-5.3,3.4-10.3,8.8-8.9l19.6,5.1
		C244.9,206.7,246.8,213.4,242.9,217.4z"/>
	<path fill="#FFFFFF" d="M133.8,42.6l-16.6,16.9c-4.5,4.6-12.4,2.6-14.1-3.7L96.7,33c-1.7-6.2,4-12,10.2-10.4l22.9,5.9
		C136.1,30.2,138.3,38,133.8,42.6z"/>
</g>
</svg>
